<svg width="34" height="34" viewBox="0 0 34 34" fill="none" xmlns="http://www.w3.org/2000/svg">
<g clip-path="url(#clip0_211_2046)">
<path fill-rule="evenodd" clip-rule="evenodd" d="M9.97905 3.14941C13.8233 3.14941 16.9397 6.26582 16.9397 10.1101V3.14941H23.9004C27.7447 3.14941 30.8611 6.26582 30.8611 10.1101C30.8611 13.9544 27.7447 17.0708 23.9004 17.0708C27.7447 17.0708 30.8611 20.1872 30.8611 24.0315C30.8611 25.9403 30.0927 27.6697 28.8485 28.9272L28.8224 28.9535L28.7993 28.9764C27.5415 30.2225 25.8109 30.9922 23.9004 30.9922C22.003 30.9922 20.2829 30.233 19.0273 29.0018C19.011 28.9858 18.9947 28.9696 18.9785 28.9535C18.9632 28.9382 18.948 28.9229 18.9329 28.9075C17.7001 27.6517 16.9397 25.9304 16.9397 24.0315C16.9397 27.8758 13.8233 30.9922 9.97905 30.9922C6.13476 30.9922 3.01836 27.8758 3.01836 24.0315V17.0708H9.97905C6.13476 17.0708 3.01836 13.9544 3.01836 10.1101C3.01836 6.26582 6.13476 3.14941 9.97905 3.14941ZM15.5476 10.1101C15.5476 13.1856 13.0545 15.6787 9.97905 15.6787V4.54155C13.0545 4.54155 15.5476 7.03468 15.5476 10.1101ZM29.469 24.0315C29.469 20.9561 26.9759 18.4629 23.9004 18.4629C20.825 18.4629 18.3319 20.9561 18.3319 24.0315H29.469ZM4.4105 18.4629V24.0315C4.4105 27.1069 6.90362 29.6001 9.97905 29.6001C13.0545 29.6001 15.5476 27.1069 15.5476 24.0315V18.4629H4.4105ZM18.3319 15.6787V4.54155H23.9004C26.9759 4.54155 29.469 7.03468 29.469 10.1101C29.469 13.1856 26.9759 15.6787 23.9004 15.6787H18.3319Z" fill="#263238"/>
</g>
<defs>
<clipPath id="clip0_211_2046">
<rect width="27.8428" height="27.8428" fill="white" transform="translate(3.01836 3.14941)"/>
</clipPath>
</defs>
</svg>
