<svg width="34" height="34" viewBox="0 0 34 34" fill="none" xmlns="http://www.w3.org/2000/svg">
<g clip-path="url(#clip0_211_2072)">
<path d="M30.0806 8.50259C30.0806 8.82695 30.3468 9.0899 30.6752 9.0899H31.2697C31.5981 9.0899 31.8643 8.82695 31.8643 8.50259C31.8643 8.17823 31.5981 7.91528 31.2697 7.91528H30.6752C30.3468 7.91528 30.0806 8.17823 30.0806 8.50259Z" fill="#212326"/>
<path d="M12.8384 26.7092H15.7267L14.8858 25.8786C14.6628 25.6583 14.3604 25.5345 14.045 25.5345H12.8384C8.24126 25.5345 4.51456 21.8533 4.51456 17.3122C4.51456 12.7712 8.24126 9.08991 12.8384 9.0899H22.3513C26.9485 9.0899 30.6752 12.7712 30.6752 17.3122C30.6752 21.8533 26.9485 25.5345 22.3513 25.5345H18.7927C18.3197 25.5345 17.866 25.3489 17.5315 25.0185L16.5464 24.0454C15.9889 23.4947 15.2327 23.1853 14.4443 23.1853H12.8384C9.55471 23.1853 6.8928 20.5559 6.8928 17.3122C6.8928 14.0686 9.55471 11.4391 12.8384 11.4391H22.3513C25.635 11.4391 28.2969 14.0686 28.2969 17.3122C28.2969 20.5559 25.635 23.1853 22.3513 23.1853H20.0664C19.5933 23.1853 19.1396 22.9997 18.8051 22.6693L17.82 21.6962C17.2625 21.1455 16.5063 20.8361 15.7179 20.8361H12.8384C10.8682 20.8361 9.27103 19.2584 9.27103 17.3122C9.27103 15.3661 10.8682 13.7884 12.8384 13.7884H22.3513C24.3215 13.7884 25.9187 15.3661 25.9187 17.3122C25.9187 19.2346 24.3602 20.7975 22.4233 20.8354L22.4229 20.8361H21.5528C21.0797 20.8361 20.626 20.6504 20.2915 20.32L19.3064 19.3469C18.849 18.895 18.2578 18.6057 17.6247 18.5163L17.5949 18.4868H12.8384C12.1817 18.4868 11.6493 17.9609 11.6493 17.3122C11.6493 16.6635 12.1817 16.1376 12.8384 16.1376H22.3513C23.0081 16.1376 23.5405 16.6635 23.5405 17.3122C23.5405 17.9609 23.0081 18.4868 22.3513 18.4868H19.9731L20.814 19.3174C21.0369 19.5377 21.3394 19.6615 21.6548 19.6615H22.3513C23.6648 19.6615 24.7296 18.6097 24.7296 17.3122C24.7296 16.0148 23.6648 14.963 22.3513 14.963H12.8384C11.5249 14.963 10.4602 16.0148 10.4602 17.3122C10.4602 18.6097 11.5249 19.6615 12.8384 19.6615H17.2043C17.6774 19.6615 18.1311 19.8471 18.4656 20.1775L19.4507 21.1506C20.0082 21.7013 20.7643 22.0107 21.5528 22.0107H22.6486V22.0017C25.1371 21.8501 27.1078 19.8085 27.1078 17.3122C27.1078 14.7174 24.9782 12.6138 22.3513 12.6138H12.8384C10.2115 12.6138 8.08191 14.7174 8.08191 17.3122C8.08191 19.9071 10.2115 22.0107 12.8384 22.0107H15.7179C16.191 22.0107 16.6447 22.1963 16.9792 22.5267L17.9643 23.4998C18.5218 24.0505 19.2779 24.3599 20.0664 24.3599H22.3513C26.2917 24.3599 29.4861 21.2046 29.4861 17.3122C29.4861 13.4199 26.2917 10.2645 22.3513 10.2645H12.8384C8.89798 10.2645 5.70368 13.4199 5.70368 17.3122C5.70368 21.2046 8.89798 24.3599 12.8384 24.3599H14.4443C14.9173 24.3599 15.371 24.5456 15.7055 24.876L16.6907 25.8491C17.2482 26.3998 18.0043 26.7092 18.7927 26.7092H22.3513C27.6052 26.7092 31.8643 22.502 31.8643 17.3122C31.8643 12.1224 27.6052 7.91528 22.3513 7.91528L12.8384 7.91529C7.58453 7.91529 3.32544 12.1224 3.32544 17.3122C3.32544 22.502 7.58453 26.7092 12.8384 26.7092Z" fill="#212326"/>
</g>
<defs>
<clipPath id="clip0_211_2072">
<rect width="28.5388" height="18.7939" fill="white" transform="translate(3.32544 7.91528)"/>
</clipPath>
</defs>
</svg>
