<svg width="39" height="34" viewBox="0 0 39 34" fill="none" xmlns="http://www.w3.org/2000/svg">
<g clip-path="url(#clip0_211_2080)">
<path d="M38.8874 13.95C38.8913 13.921 38.8913 13.8916 38.8874 13.8626C38.8911 13.839 38.8911 13.8149 38.8874 13.7912L38.6037 11.7498C38.5628 11.5056 38.4534 11.2773 38.2878 11.0906L38.2391 11.035L38.1501 10.9476L33.2403 6.80139L33.378 6.93643C33.2653 6.80426 33.1239 6.69854 32.964 6.62706C32.8042 6.55558 32.63 6.52016 32.4544 6.5234H30.9636C30.7212 6.51869 30.4843 6.59425 30.2911 6.73786C30.0883 6.59512 29.8441 6.51994 29.5944 6.5234H28.1036C27.9081 6.52029 27.7152 6.56786 27.5445 6.66131C27.3738 6.75476 27.2313 6.89077 27.1314 7.05557C26.9774 7.29095 26.9196 7.57454 26.9693 7.84986L27.1557 9.13661C27.0322 9.068 26.8925 9.0324 26.7506 9.03336H19.5317C19.2727 9.03495 19.0197 9.10938 18.8025 9.24781C18.5926 9.37666 18.424 9.56117 18.3164 9.77998L17.7574 9.31135C17.5374 9.11177 17.2469 9.00359 16.9472 9.00953H5.62067C5.36075 9.01417 5.1066 9.08536 4.88341 9.21604C4.57806 9.39125 4.35429 9.67614 4.25954 10.0103L0.662273 21.8055C0.595059 21.9999 0.588447 22.2095 0.643284 22.4076C0.698121 22.6056 0.811922 22.7832 0.970151 22.9176C1.01138 22.9518 1.05467 22.9837 1.09979 23.0128C1.09979 23.0128 1.02686 22.9652 0.986346 22.9255L5.89616 27.0796C6.10385 27.2671 6.3754 27.3719 6.65769 27.3735H18.0734C18.3341 27.3669 18.5884 27.2929 18.8107 27.159C18.9364 27.0917 19.0488 27.0029 19.1428 26.8969L19.1834 26.8413L19.2482 26.7619L19.2968 26.6745L19.8315 27.1273C20.0362 27.3073 20.3019 27.4063 20.5769 27.4053H32.0168C32.2773 27.3968 32.5311 27.323 32.7541 27.1908C32.877 27.1193 32.9888 27.0311 33.0863 26.9287L33.1268 26.8731L33.1916 26.7937C33.2261 26.7434 33.256 26.6903 33.2807 26.6348C33.3072 26.5866 33.3289 26.5361 33.3456 26.4839L36.6269 15.7133V15.618C36.6309 15.5811 36.6309 15.5438 36.6269 15.5068V15.4354C36.6308 15.4117 36.6308 15.3875 36.6269 15.3638C36.6305 15.3136 36.6305 15.2632 36.6269 15.2129H37.6801C37.7717 15.2212 37.8639 15.2212 37.9556 15.2129H38.0285C38.0878 15.1956 38.1449 15.1716 38.1987 15.1414H38.2797L38.4255 15.0302L38.4903 14.9826L38.6037 14.8396V14.792L38.6848 14.6569C38.6802 14.6307 38.6802 14.6038 38.6848 14.5775C38.6805 14.5646 38.6805 14.5507 38.6848 14.5378C38.702 14.4912 38.7155 14.4434 38.7253 14.3948C38.7215 14.3791 38.7215 14.3628 38.7253 14.3471C38.7213 14.3235 38.7213 14.2993 38.7253 14.2757C38.7253 14.2757 38.8874 13.9659 38.8874 13.95Z" fill="black"/>
<path d="M17.2793 9.91505C17.3224 9.95318 17.3524 10.0033 17.3654 10.0587C17.3785 10.1141 17.3739 10.1721 17.3523 10.2248L13.7631 22.0121C13.7179 22.1408 13.6255 22.2484 13.5039 22.3139C13.4049 22.3788 13.2904 22.4171 13.1716 22.4251H1.76412C1.66669 22.4205 1.5744 22.381 1.50485 22.3139C1.46348 22.2764 1.43444 22.2276 1.42145 22.1739C1.40846 22.1201 1.41212 22.0638 1.43193 22.0121L5.0292 10.2248C5.07065 10.0945 5.16021 9.98404 5.28036 9.91505C5.38095 9.85482 5.49493 9.81939 5.61254 9.81179H17.0201C17.1167 9.8127 17.2094 9.84962 17.2793 9.91505ZM11.3244 19.6372L13.4714 12.5997H7.45981L5.32086 19.6372H11.3244ZM28.1684 10.0342C28.2073 10.0785 28.256 10.1137 28.3107 10.1371C28.3654 10.1605 28.4247 10.1714 28.4844 10.1692H29.967C30.0235 10.1698 30.0791 10.1562 30.1288 10.1298C30.1784 10.1034 30.2203 10.065 30.2506 10.0183C30.2769 9.98182 30.2955 9.94052 30.3053 9.89686C30.315 9.8532 30.3157 9.80807 30.3073 9.76414L30.0156 7.66721C29.9879 7.57016 29.938 7.48054 29.8698 7.40509C29.8309 7.36075 29.7823 7.32558 29.7275 7.30221C29.6728 7.27883 29.6134 7.26785 29.5538 7.27006H28.0712C28.0147 7.26953 27.959 7.2831 27.9094 7.30951C27.8598 7.33591 27.8179 7.37428 27.7876 7.42098C27.7309 7.53218 27.7066 7.60367 27.7309 7.66721L28.0307 9.76414C28.046 9.86624 28.0943 9.96085 28.1684 10.0342ZM32.8756 7.65132C32.8478 7.55427 32.798 7.46465 32.7298 7.38921C32.6925 7.34503 32.6453 7.30987 32.5919 7.28645C32.5385 7.26304 32.4804 7.25199 32.4219 7.25418H30.9311C30.8756 7.25263 30.8207 7.26584 30.7722 7.2924C30.7237 7.31897 30.6835 7.35791 30.6557 7.40509C30.6018 7.47556 30.5785 7.56407 30.5909 7.65132L30.8906 9.74825C30.9094 9.84927 30.9572 9.94295 31.0284 10.0183C31.068 10.0618 31.1168 10.0964 31.1713 10.1197C31.2259 10.143 31.2848 10.1544 31.3443 10.1533H32.8351C32.8905 10.154 32.9451 10.1405 32.9934 10.114C33.0418 10.0875 33.0822 10.049 33.1106 10.0024C33.1388 9.96689 33.1585 9.9256 33.1683 9.88162C33.1781 9.83765 33.1778 9.79208 33.1673 9.74825L32.8756 7.65132ZM26.864 10.8285L26.7181 9.7959H19.5317C19.4189 9.802 19.3097 9.83766 19.2157 9.89916C19.156 9.93106 19.1041 9.97528 19.0635 10.0288C19.023 10.0822 18.9948 10.1437 18.9808 10.2089L18.3812 12.1788C18.3573 12.228 18.3491 12.2832 18.3578 12.3371C18.3665 12.391 18.3916 12.441 18.4298 12.4806C18.4981 12.5436 18.5873 12.5803 18.681 12.5839H27.4149L25.2679 19.6213H16.5583C16.446 19.6238 16.3366 19.6568 16.2423 19.7166C16.1277 19.7879 16.0441 19.8982 16.0074 20.0263L15.3997 21.9962C15.3799 22.0467 15.3747 22.1017 15.3847 22.1549C15.3947 22.2082 15.4195 22.2577 15.4564 22.298C15.5226 22.3652 15.6125 22.405 15.7076 22.4092H27.1475C27.2658 22.3992 27.3799 22.3611 27.4797 22.298C27.5993 22.2321 27.6891 22.1243 27.7309 21.9962L31.0203 11.2256H27.3177C27.2589 11.2268 27.2006 11.2161 27.1463 11.1942C27.0919 11.1724 27.0427 11.1398 27.0017 11.0985C26.9347 11.0265 26.8874 10.9391 26.864 10.8444V10.8285Z" fill="white"/>
</g>
<defs>
<clipPath id="clip0_211_2080">
<rect width="38.2838" height="20.8821" fill="white" transform="translate(0.606506 6.52319)"/>
</clipPath>
</defs>
</svg>
