<svg width="37" height="34" viewBox="0 0 37 34" fill="none" xmlns="http://www.w3.org/2000/svg">
<g clip-path="url(#clip0_211_2076)">
<path d="M8.81751 10.0037C7.40398 10.0037 6.04836 10.5652 5.04885 11.5647L1.78686 14.8267C0.787349 15.8262 0.22583 17.1818 0.22583 18.5953C0.22583 21.5389 2.61202 23.9251 5.55554 23.9251C6.96907 23.9251 8.32469 23.3635 9.3242 22.364L11.5805 20.1077C11.5805 20.1076 11.5806 20.1077 11.5805 20.1077L18.1547 13.5335C18.6321 13.0561 19.2795 12.7879 19.9546 12.7879C21.0849 12.7879 22.0431 13.5246 22.3753 14.5439L24.4501 12.4691C23.5036 10.9867 21.8439 10.0037 19.9546 10.0037C18.5411 10.0037 17.1855 10.5652 16.186 11.5647L7.35544 20.3952C6.87807 20.8726 6.23064 21.1408 5.55554 21.1408C4.14973 21.1408 3.01011 20.0012 3.01011 18.5953C3.01011 17.9202 3.27828 17.2728 3.75564 16.7954L7.01761 13.5335C7.49498 13.0561 8.14241 12.7879 8.81751 12.7879C9.94779 12.7879 10.9059 13.5246 11.2382 14.544L13.313 12.4692C12.3665 10.9867 10.7068 10.0037 8.81751 10.0037Z" fill="#394149"/>
<path d="M18.4925 20.3952C18.0152 20.8726 17.3677 21.1408 16.6926 21.1408C15.5626 21.1408 14.6044 20.4043 14.2721 19.3851L12.1974 21.4599C13.1439 22.9422 14.8035 23.9251 16.6926 23.9251C18.1062 23.9251 19.4618 23.3635 20.4613 22.364L29.2918 13.5335C29.7692 13.0561 30.4166 12.7879 31.0917 12.7879C32.4976 12.7879 33.6372 13.9276 33.6372 15.3334C33.6372 16.0085 33.369 16.6559 32.8916 17.1333L29.6297 20.3952C29.1523 20.8726 28.5049 21.1408 27.8298 21.1408C26.6996 21.1408 25.7414 20.4042 25.4092 19.3849L23.3344 21.4597C24.2809 22.9421 25.9405 23.9251 27.8298 23.9251C29.2433 23.9251 30.5989 23.3635 31.5984 22.364L34.8604 19.102C35.8599 18.1025 36.4214 16.7469 36.4214 15.3334C36.4214 12.3899 34.0353 10.0037 31.0917 10.0037C29.6782 10.0037 28.3226 10.5652 27.3231 11.5647L18.4925 20.3952Z" fill="#394149"/>
</g>
<defs>
<clipPath id="clip0_211_2076">
<rect width="36.1956" height="13.9214" fill="white" transform="translate(0.22583 10.0037)"/>
</clipPath>
</defs>
</svg>
