<svg width="34" height="34" viewBox="0 0 34 34" fill="none" xmlns="http://www.w3.org/2000/svg">
<g clip-path="url(#clip0_211_2049)">
<path fill-rule="evenodd" clip-rule="evenodd" d="M10.0459 10.0833L3.09509 16.9642C4.48538 18.3405 6.07357 19.5005 7.80514 20.4079C8.28376 21.6648 9.03398 22.8434 10.0558 23.8549C13.9001 27.6606 20.1329 27.6606 23.9772 23.8549C24.999 22.8434 25.7492 21.6648 26.2278 20.4079C27.9594 19.5005 29.5476 18.3405 30.9379 16.9642L23.9927 10.0889C23.9875 10.0838 23.9824 10.0786 23.9772 10.0735C20.1329 6.26783 13.9001 6.26783 10.0558 10.0735C10.0525 10.0767 10.0492 10.08 10.0459 10.0833ZM23.3121 21.6494C21.2865 22.3261 19.1602 22.6727 17.0165 22.6727C14.8728 22.6727 12.7465 22.3261 10.721 21.6494C10.9404 21.9376 11.1827 22.2142 11.4479 22.4768C14.5234 25.5213 19.5096 25.5213 22.585 22.4768C22.8502 22.2142 23.0926 21.9376 23.3121 21.6494ZM11.5907 11.3138C12.113 11.6554 12.6683 11.9476 13.2494 12.1859C14.4437 12.6757 15.7237 12.9277 17.0165 12.9277C18.3092 12.9277 19.5893 12.6757 20.7836 12.1859C21.3647 11.9476 21.92 11.6554 22.4423 11.3138C19.4053 8.45304 14.6277 8.45305 11.5907 11.3138Z" fill="#3B4158"/>
</g>
<defs>
<clipPath id="clip0_211_2049">
<rect width="27.8428" height="19.4899" fill="white" transform="translate(3.09509 7.21924)"/>
</clipPath>
</defs>
</svg>
