<svg width="35" height="34" viewBox="0 0 35 34" fill="none" xmlns="http://www.w3.org/2000/svg">
<g clip-path="url(#clip0_211_2332)">
<path d="M12.4102 6.38672C14.0518 6.38682 15.6539 6.89183 16.999 7.83301C18.3443 8.77432 19.3672 10.1069 19.9297 11.6494C20.4922 13.1918 20.5669 14.8698 20.1436 16.4561C19.7201 18.0424 18.8189 19.4606 17.5625 20.5176L17.1396 20.873L17.6436 21.1006C19.7131 22.0371 21.4937 23.5113 22.8008 25.3691L22.8057 25.376L22.8115 25.3828C22.9131 25.5129 22.9872 25.6627 23.0293 25.8223C23.0713 25.9818 23.0799 26.1483 23.0557 26.3115C23.0314 26.4747 22.9742 26.631 22.8877 26.7715C22.8012 26.9119 22.6876 27.0339 22.5527 27.1289C22.4179 27.2238 22.2648 27.29 22.1035 27.3242C21.9421 27.3584 21.7751 27.3594 21.6133 27.3271C21.4514 27.2949 21.2972 27.2301 21.1611 27.1367H21.1621C21.0261 27.0433 20.9095 26.9236 20.8213 26.7842L20.8174 26.7773L20.8125 26.7705L20.6309 26.5205C19.7068 25.2851 18.5157 24.2723 17.1445 23.5596C15.6822 22.7995 14.0582 22.4024 12.4102 22.4023C10.7619 22.4023 9.13733 22.7994 7.6748 23.5596C6.21224 24.3198 4.95399 25.4215 4.00684 26.7705L4.00586 26.7715C3.89454 26.9312 3.74597 27.0615 3.57324 27.1514C3.40043 27.2413 3.20848 27.2886 3.01367 27.2881H3.01172C2.76183 27.2889 2.51776 27.2107 2.31445 27.0654L2.3125 27.0645L2.21777 26.9902C2.00629 26.8071 1.86371 26.5554 1.81543 26.2773C1.76718 25.9993 1.81669 25.7144 1.9541 25.4707L2.01855 25.3691C3.32562 23.5113 5.10627 22.0371 7.17578 21.1006L7.67969 20.873L7.25684 20.5176C6.00041 19.4606 5.09924 18.0424 4.67578 16.4561C4.25241 14.8698 4.32716 13.1918 4.88965 11.6494C5.45218 10.1069 6.47508 8.77432 7.82031 7.83301C9.16554 6.89173 10.7683 6.38672 12.4102 6.38672ZM23.0459 6.39648H23.0479C24.6906 6.39179 26.2952 6.89426 27.6426 7.83398C28.9899 8.77376 30.015 10.1062 30.5781 11.6494C31.1411 13.1925 31.2154 14.8715 30.79 16.458C30.3645 18.0448 29.4599 19.4621 28.2002 20.5166L27.7754 20.8721L28.2803 21.1006C30.3498 22.0371 32.1304 23.5113 33.4375 25.3691L33.4395 25.3711C33.5322 25.5009 33.5982 25.6482 33.6338 25.8037C33.6693 25.9594 33.6738 26.121 33.6465 26.2783C33.6192 26.4357 33.5606 26.5861 33.4746 26.7207C33.3887 26.8553 33.2768 26.9715 33.1455 27.0625L33.1416 27.0654C32.9383 27.2107 32.6942 27.2879 32.4443 27.2871C32.2492 27.2858 32.0569 27.2385 31.8838 27.1484C31.7106 27.0582 31.5612 26.9279 31.4482 26.7686C30.4992 25.4225 29.241 24.3235 27.7793 23.5645C26.4087 22.8527 24.8965 22.459 23.3555 22.4111L23.0469 22.4062L22.9258 22.4004C22.6472 22.3727 22.3853 22.2495 22.1855 22.0498C21.9571 21.8214 21.8282 21.5115 21.8281 21.1885C21.8281 20.8654 21.9571 20.5556 22.1855 20.3271C22.414 20.0988 22.7239 19.9707 23.0469 19.9707C24.5236 19.9706 25.9402 19.3831 26.9844 18.3389C28.0285 17.2946 28.6152 15.8781 28.6152 14.4014C28.6151 12.9246 28.0286 11.5081 26.9844 10.4639C26.0053 9.48475 24.6987 8.90804 23.3223 8.83984L23.0469 8.83301C22.5378 8.83207 22.0306 8.90233 21.541 9.04199L21.4199 9.07227C21.3014 9.09511 21.18 9.09982 21.0596 9.08691C20.8989 9.06971 20.7431 9.02129 20.6016 8.94336C20.4602 8.8655 20.3357 8.76017 20.2354 8.63379C20.1349 8.50724 20.0604 8.36158 20.0166 8.20605C19.9728 8.05055 19.9608 7.88788 19.9805 7.72754C20.0002 7.56725 20.0518 7.41271 20.1318 7.27246C20.212 7.13216 20.3192 7.00861 20.4473 6.91016C20.5753 6.81181 20.7219 6.73954 20.8779 6.69824L20.8838 6.69727C21.587 6.49707 22.3148 6.39527 23.0459 6.39648ZM13.4961 8.94043C12.4159 8.72557 11.2958 8.83537 10.2783 9.25684C9.26094 9.6783 8.39113 10.392 7.7793 11.3076C7.16748 12.2233 6.84089 13.3001 6.84082 14.4014C6.84082 15.878 7.42763 17.2946 8.47168 18.3389C9.51599 19.3832 10.9333 19.9707 12.4102 19.9707C13.5111 19.9706 14.5874 19.6438 15.5029 19.0322C16.4187 18.4203 17.1332 17.5497 17.5547 16.5322C17.976 15.5149 18.0859 14.3954 17.8711 13.3154C17.6562 12.2353 17.1264 11.2426 16.3477 10.4639C15.5689 9.68512 14.5762 9.15531 13.4961 8.94043Z" fill="#4CAF4F" stroke="#4CAF4F" stroke-width="0.696069"/>
</g>
<defs>
<clipPath id="clip0_211_2332">
<rect width="33.4113" height="33.4113" fill="white" transform="translate(0.924561 0.306274)"/>
</clipPath>
</defs>
</svg>
