<svg width="30" height="24" viewBox="0 0 30 24" fill="none" xmlns="http://www.w3.org/2000/svg">
<path d="M5.09076 0.717285H24.9286C26.0823 0.717285 27.189 1.176 28.0048 1.9917C28.8206 2.80751 29.2792 3.91415 29.2792 5.06787V18.6411C29.2792 19.7949 28.8207 20.9014 28.0048 21.7173C27.189 22.5332 26.0825 22.9917 24.9286 22.9917H5.09076C3.93703 22.9916 2.8304 22.5331 2.01459 21.7173C1.1989 20.9014 0.740173 19.7948 0.740173 18.6411V5.06787C0.740233 3.91415 1.19878 2.80751 2.01459 1.9917C2.8304 1.17589 3.93703 0.717345 5.09076 0.717285ZM2.13275 18.6411C2.13275 19.4256 2.44435 20.1781 2.99896 20.7329C3.5537 21.2876 4.30625 21.6 5.09076 21.6001H24.9286C25.7132 21.6001 26.4657 21.2877 27.0204 20.7329C27.5752 20.1781 27.8876 19.4257 27.8876 18.6411V8.37451H2.13275V18.6411ZM20.2304 15.3354H23.3632C23.5477 15.3356 23.725 15.4081 23.8554 15.5386C23.9858 15.669 24.0584 15.8463 24.0585 16.0308C24.0585 16.2152 23.9857 16.3925 23.8554 16.5229C23.725 16.6534 23.5477 16.7269 23.3632 16.7271H20.2304C20.0458 16.727 19.8687 16.6535 19.7382 16.5229C19.6078 16.3924 19.5341 16.2153 19.5341 16.0308C19.5342 15.8463 19.6078 15.669 19.7382 15.5386C19.8687 15.4082 20.0459 15.3355 20.2304 15.3354ZM5.09076 2.10986C4.30625 2.10992 3.5537 2.42134 2.99896 2.97607C2.44423 3.53081 2.13281 4.28336 2.13275 5.06787V6.98193H27.8876V5.06787C27.8876 4.28336 27.5752 3.53081 27.0204 2.97607C26.4657 2.42146 25.7131 2.10986 24.9286 2.10986H5.09076Z" fill="#4CAF4F" stroke="#4CAF4F" stroke-width="0.696069"/>
</svg>
