<svg width="12" height="9" viewBox="0 0 12 9" fill="none" xmlns="http://www.w3.org/2000/svg">
<path d="M6.34889 4.89459L4.54903 7.97714L2.7492 4.89459H6.34889ZM6.83106 4.61908H2.26508L4.54903 8.52238L6.83106 4.61908Z" fill="#263238"/>
<path d="M9.47819 1.06059L11.278 4.14314H7.67833L9.47819 1.06059ZM9.47819 0.509583L7.19421 4.41287H11.7621L9.47819 0.509583Z" fill="#263238"/>
<path d="M0.0767822 0.509583L1.99181 3.96205L4.08446 0.596275L0.0767822 0.509583Z" fill="#4CAF4F"/>
<path d="M4.54913 0.812042L6.55786 4.24524H2.5365L4.54913 0.812042Z" fill="#4CAF4F"/>
<path d="M7.07514 4.99478L9.08582 8.5224H4.96881L7.01267 4.99478H7.07514Z" fill="#4CAF4F"/>
<path d="M7.51044 4.78091L9.47816 8.25457L11.4732 4.78091H7.51044Z" fill="#4CAF4F"/>
</svg>
