<svg width="52" height="9" viewBox="0 0 52 9" fill="none" xmlns="http://www.w3.org/2000/svg">
<path d="M6.34889 4.89459L4.54903 7.97714L2.7492 4.89459H6.34889ZM6.83106 4.61908H2.26508L4.54903 8.52238L6.83106 4.61908Z" fill="#263238"/>
<path d="M9.47819 1.0606L11.278 4.14316H7.67833L9.47819 1.0606ZM9.47819 0.509598L7.19421 4.41288H11.7621L9.47819 0.509598Z" fill="#263238"/>
<path d="M0.0767822 0.509598L1.99181 3.96206L4.08446 0.59629L0.0767822 0.509598Z" fill="#4CAF4F"/>
<path d="M4.54913 0.812042L6.55786 4.24524H2.5365L4.54913 0.812042Z" fill="#4CAF4F"/>
<path d="M7.07514 4.99478L9.08582 8.5224H4.96881L7.01267 4.99478H7.07514Z" fill="#4CAF4F"/>
<path d="M7.51044 4.78091L9.47816 8.25457L11.4732 4.78091H7.51044Z" fill="#4CAF4F"/>
<path d="M20.1197 1.06683V7.86557H18.8781L15.9203 3.58648H15.8705V7.86557H14.433V1.06683H15.6945L18.6291 5.3426H18.6889V1.06683H20.1197Z" fill="#263238"/>
<path d="M23.6045 7.96516C23.08 7.96516 22.6285 7.85893 22.2501 7.64647C21.8739 7.4318 21.5839 7.1286 21.3803 6.73687C21.1767 6.34294 21.0749 5.87707 21.0749 5.33928C21.0749 4.81477 21.1767 4.35444 21.3803 3.95829C21.5839 3.56214 21.8705 3.25341 22.2401 3.03209C22.6119 2.81078 23.0479 2.70012 23.5481 2.70012C23.8845 2.70012 24.1977 2.75435 24.4876 2.86279C24.7797 2.96902 25.0342 3.12947 25.2511 3.34414C25.4702 3.55882 25.6406 3.82882 25.7623 4.15415C25.8841 4.47727 25.9449 4.85571 25.9449 5.28949V5.67789H21.6393V4.80149H24.6137C24.6137 4.59788 24.5695 4.41751 24.4809 4.26038C24.3924 4.10325 24.2696 3.98042 24.1124 3.89189C23.9575 3.80116 23.7772 3.75579 23.5713 3.75579C23.3567 3.75579 23.1663 3.80558 23.0003 3.90517C22.8366 4.00255 22.7082 4.13423 22.6153 4.30022C22.5223 4.46399 22.4747 4.64657 22.4725 4.84797V5.68121C22.4725 5.93351 22.519 6.1515 22.6119 6.33519C22.7071 6.51888 22.841 6.66052 23.0136 6.76011C23.1863 6.8597 23.391 6.9095 23.6278 6.9095C23.7849 6.9095 23.9288 6.88737 24.0593 6.8431C24.1899 6.79884 24.3017 6.73245 24.3946 6.64392C24.4876 6.5554 24.5584 6.44695 24.6071 6.31859L25.915 6.4049C25.8486 6.71917 25.7125 6.9936 25.5067 7.22819C25.3031 7.46057 25.0397 7.64204 24.7166 7.77262C24.3957 7.90098 24.025 7.96516 23.6045 7.96516Z" fill="#263238"/>
<path d="M27.9583 2.76652L28.8945 4.54919L29.8539 2.76652H31.3046L29.8273 5.31604L31.3444 7.86557H29.9003L28.8945 6.10281L27.9052 7.86557H26.4445L27.9583 5.31604L26.4976 2.76652H27.9583Z" fill="#263238"/>
<path d="M34.2657 7.96516C33.7434 7.96516 33.2942 7.8545 32.9179 7.63319C32.5439 7.40967 32.2562 7.09983 32.0548 6.70368C31.8556 6.30753 31.756 5.85162 31.756 5.33596C31.756 4.81366 31.8567 4.35555 32.0581 3.96161C32.2617 3.56546 32.5506 3.25673 32.9246 3.03541C33.2986 2.81189 33.7434 2.70012 34.2591 2.70012C34.7039 2.70012 35.0934 2.7809 35.4276 2.94246C35.7618 3.10402 36.0263 3.33087 36.221 3.623C36.4158 3.91513 36.5231 4.25817 36.543 4.65211H35.2085C35.1709 4.39759 35.0713 4.19288 34.9098 4.03796C34.7504 3.88083 34.5413 3.80226 34.2823 3.80226C34.0632 3.80226 33.8718 3.86202 33.708 3.98153C33.5465 4.09882 33.4203 4.27034 33.3296 4.49608C33.2388 4.72182 33.1935 4.99514 33.1935 5.31604C33.1935 5.64137 33.2377 5.91802 33.3263 6.14597C33.417 6.37392 33.5443 6.54765 33.708 6.66716C33.8718 6.78667 34.0632 6.84642 34.2823 6.84642C34.4439 6.84642 34.5889 6.81323 34.7172 6.74683C34.8478 6.68044 34.9551 6.58417 35.0392 6.45802C35.1255 6.32966 35.182 6.17585 35.2085 5.99658H36.543C36.5209 6.38609 36.4147 6.72913 36.2244 7.02569C36.0362 7.32003 35.7762 7.5502 35.4442 7.71618C35.1123 7.88217 34.7194 7.96516 34.2657 7.96516Z" fill="#263238"/>
<path d="M39.7723 7.96516C39.2478 7.96516 38.7963 7.85893 38.4178 7.64647C38.0416 7.4318 37.7517 7.1286 37.5481 6.73687C37.3445 6.34294 37.2427 5.87707 37.2427 5.33928C37.2427 4.81477 37.3445 4.35444 37.5481 3.95829C37.7517 3.56214 38.0383 3.25341 38.4079 3.03209C38.7797 2.81078 39.2157 2.70012 39.7158 2.70012C40.0522 2.70012 40.3654 2.75435 40.6553 2.86279C40.9475 2.96902 41.202 3.12947 41.4189 3.34414C41.638 3.55882 41.8084 3.82882 41.9301 4.15415C42.0518 4.47727 42.1127 4.85571 42.1127 5.28949V5.67789H37.807V4.80149H40.7815C40.7815 4.59788 40.7372 4.41751 40.6487 4.26038C40.5602 4.10325 40.4373 3.98042 40.2802 3.89189C40.1253 3.80116 39.9449 3.75579 39.7391 3.75579C39.5244 3.75579 39.3341 3.80558 39.1681 3.90517C39.0043 4.00255 38.876 4.13423 38.783 4.30022C38.6901 4.46399 38.6425 4.64657 38.6403 4.84797V5.68121C38.6403 5.93351 38.6867 6.1515 38.7797 6.33519C38.8749 6.51888 39.0088 6.66052 39.1814 6.76011C39.354 6.8597 39.5587 6.9095 39.7955 6.9095C39.9527 6.9095 40.0965 6.88737 40.2271 6.8431C40.3577 6.79884 40.4694 6.73245 40.5624 6.64392C40.6553 6.5554 40.7261 6.44695 40.7748 6.31859L42.0828 6.4049C42.0164 6.71917 41.8803 6.9936 41.6745 7.22819C41.4709 7.46057 41.2075 7.64204 40.8844 7.77262C40.5635 7.90098 40.1928 7.96516 39.7723 7.96516Z" fill="#263238"/>
<path d="M44.4497 4.91768V7.86557H43.0355V2.76652H44.3833V3.66616H44.4431C44.556 3.3696 44.7452 3.135 45.0108 2.96238C45.2763 2.78754 45.5983 2.70012 45.9768 2.70012C46.3309 2.70012 46.6396 2.77758 46.903 2.9325C47.1663 3.08742 47.3711 3.30873 47.5171 3.59644C47.6632 3.88194 47.7362 4.22276 47.7362 4.61891V7.86557H46.322V4.8712C46.3243 4.55915 46.2446 4.31571 46.083 4.14087C45.9215 3.96382 45.699 3.8753 45.4158 3.8753C45.2254 3.8753 45.0572 3.91624 44.9112 3.99812C44.7673 4.08001 44.6544 4.19952 44.5726 4.35665C44.4929 4.51157 44.4519 4.69858 44.4497 4.91768Z" fill="#263238"/>
<path d="M51.563 2.76652V3.82882H48.4923V2.76652H51.563ZM49.1894 1.54487H50.6036V6.29867C50.6036 6.42925 50.6235 6.53105 50.6634 6.60409C50.7032 6.67491 50.7585 6.7247 50.8294 6.75347C50.9024 6.78224 50.9865 6.79663 51.0817 6.79663C51.148 6.79663 51.2144 6.7911 51.2808 6.78003C51.3472 6.76675 51.3981 6.75679 51.4335 6.75015L51.656 7.8025C51.5851 7.82463 51.4855 7.85008 51.3572 7.87885C51.2288 7.90983 51.0728 7.92865 50.8891 7.93528C50.5483 7.94856 50.2495 7.90319 49.9928 7.79918C49.7383 7.69516 49.5402 7.5336 49.3986 7.3145C49.2569 7.0954 49.1872 6.81876 49.1894 6.48458V1.54487Z" fill="#263238"/>
</svg>
